<?xml version="1.0" encoding="UTF-8"?>
<svg id="Layer_2" data-name="Layer 2" xmlns="http://www.w3.org/2000/svg" viewBox="0 0 779 437">
  <defs>
    <style>
      .cls-1 {
        fill: #0f0f82;
      }
    </style>
  </defs>
  <path class="cls-1" d="M263.7,93.86c-2.87,4.59-5.88,8.04-9.04,10.33-3.16,2.3-7.22,3.44-12.2,3.44-4.4,0-9.14-1.39-14.21-4.16-5.07-2.77-10.81-5.88-17.22-9.33-6.41-3.44-13.73-6.55-21.96-9.33-8.23-2.77-17.61-4.16-28.13-4.16-18.18,0-31.71,3.87-40.61,11.62-8.9,7.75-13.35,18.22-13.35,31.43,0,8.42,2.68,15.4,8.04,20.95,5.35,5.55,12.39,10.33,21.09,14.35,8.7,4.02,18.65,7.7,29.85,11.05,11.19,3.35,22.62,7.08,34.3,11.19,11.67,4.12,23.1,8.95,34.3,14.49,11.19,5.55,21.14,12.63,29.85,21.24,8.7,8.61,15.74,19.09,21.09,31.43,5.35,12.34,8.04,27.22,8.04,44.63,0,19.33-3.35,37.41-10.04,54.24-6.7,16.84-16.41,31.53-29.13,44.06-12.73,12.53-28.41,22.39-47.07,29.56-18.66,7.18-39.85,10.76-63.57,10.76-13.01,0-26.26-1.34-39.75-4.02-13.49-2.68-26.55-6.46-39.18-11.34-12.63-4.88-24.49-10.66-35.59-17.36-11.1-6.7-20.76-14.16-28.99-22.39l28.7-45.35c2.3-3.25,5.31-5.98,9.04-8.18,3.73-2.2,7.79-3.3,12.2-3.3,5.74,0,11.52,1.82,17.36,5.45,5.83,3.64,12.44,7.65,19.8,12.05,7.36,4.4,15.83,8.42,25.4,12.05,9.57,3.64,20.85,5.45,33.87,5.45,17.6,0,31.28-3.87,41.04-11.62,9.76-7.75,14.64-20.04,14.64-36.88,0-9.76-2.68-17.7-8.04-23.82-5.36-6.12-12.39-11.19-21.09-15.21-8.71-4.02-18.61-7.56-29.7-10.62-11.1-3.06-22.48-6.46-34.15-10.19-11.67-3.73-23.06-8.32-34.15-13.78-11.1-5.45-21-12.63-29.7-21.53-8.71-8.9-15.74-19.99-21.09-33.29-5.36-13.3-8.04-29.71-8.04-49.22,0-15.69,3.16-31,9.47-45.92,6.31-14.92,15.59-28.22,27.84-39.89,12.24-11.67,27.27-21,45.06-27.98,17.79-6.98,38.17-10.48,61.13-10.48,12.82,0,25.3,1,37.45,3.01,12.15,2.01,23.68,4.98,34.58,8.9,10.91,3.92,21.09,8.61,30.57,14.06s17.94,11.62,25.4,18.51l-24.11,45.06Z"/>
  <path class="cls-1" d="M742.51,93.86c-2.87,4.59-5.88,8.04-9.04,10.33-3.16,2.3-7.22,3.44-12.2,3.44-4.4,0-9.14-1.39-14.21-4.16-5.07-2.77-10.81-5.88-17.22-9.33-6.41-3.44-13.73-6.55-21.96-9.33-8.23-2.77-17.61-4.16-28.13-4.16-18.18,0-31.71,3.87-40.61,11.62-8.9,7.75-13.35,18.22-13.35,31.43,0,8.42,2.68,15.4,8.04,20.95,5.35,5.55,12.39,10.33,21.09,14.35,8.7,4.02,18.65,7.7,29.85,11.05,11.19,3.35,22.62,7.08,34.3,11.19,11.67,4.12,23.1,8.95,34.3,14.49,11.19,5.55,21.14,12.63,29.85,21.24,8.7,8.61,15.74,19.09,21.09,31.43,5.35,12.34,8.04,27.22,8.04,44.63,0,19.33-3.35,37.41-10.04,54.24-6.7,16.84-16.41,31.53-29.13,44.06-12.73,12.53-28.41,22.39-47.07,29.56-18.66,7.18-39.85,10.76-63.57,10.76-13.01,0-26.26-1.34-39.75-4.02-13.49-2.68-26.55-6.46-39.18-11.34-12.63-4.88-24.49-10.66-35.59-17.36-11.1-6.7-20.76-14.16-28.99-22.39l28.7-45.35c2.3-3.25,5.31-5.98,9.04-8.18,3.73-2.2,7.79-3.3,12.2-3.3,5.74,0,11.52,1.82,17.36,5.45,5.83,3.64,12.44,7.65,19.8,12.05,7.36,4.4,15.83,8.42,25.4,12.05,9.57,3.64,20.85,5.45,33.87,5.45,17.6,0,31.28-3.87,41.04-11.62,9.76-7.75,14.64-20.04,14.64-36.88,0-9.76-2.68-17.7-8.04-23.82-5.36-6.12-12.39-11.19-21.09-15.21-8.71-4.02-18.61-7.56-29.7-10.62-11.1-3.06-22.48-6.46-34.15-10.19-11.67-3.73-23.06-8.32-34.15-13.78-11.1-5.45-21-12.63-29.7-21.53-8.71-8.9-15.74-19.99-21.09-33.29-5.36-13.3-8.04-29.71-8.04-49.22,0-15.69,3.16-31,9.47-45.92,6.31-14.92,15.59-28.22,27.84-39.89,12.24-11.67,27.27-21,45.06-27.98,17.79-6.98,38.17-10.48,61.13-10.48,12.82,0,25.3,1,37.45,3.01,12.15,2.01,23.68,4.98,34.58,8.9,10.91,3.92,21.09,8.61,30.57,14.06s17.94,11.62,25.4,18.51l-24.11,45.06Z"/>
  <path class="cls-1" d="M395.41,141.93c7.02,0,13.2,1.03,18.55,3.09,5.35,2.06,9.87,4.77,13.56,8.14,3.69,3.36,6.58,7.25,8.68,11.66,2.1,4.41,3.4,8.93,3.91,13.56l-21.7,4.34c-3.83.87-6.66-.65-8.46-4.56-1.66-3.76-3.6-6.62-5.8-8.57-2.21-1.95-5.12-2.93-8.73-2.93-2.53,0-4.74.47-6.62,1.41-1.88.94-3.46,2.17-4.72,3.69-1.27,1.52-2.22,3.29-2.88,5.32-.65,2.03-.98,4.12-.98,6.29,0,1.88.16,3.67.49,5.37.33,1.7.88,3.44,1.68,5.21.8,1.77,1.86,3.6,3.2,5.48,1.34,1.88,3.02,3.94,5.05,6.18l39.06,41.23c1.95-4.34,3.54-8.86,4.77-13.56,1.23-4.7,2.02-9.58,2.39-14.65.22-2.02.9-3.62,2.06-4.77,1.16-1.16,2.71-1.74,4.67-1.74h21.27c0,10.56-1.41,20.42-4.23,29.57-2.82,9.15-6.84,17.52-12.04,25.12l33.2,34.94h-33.2c-1.67,0-3.15-.09-4.45-.27-1.3-.18-2.51-.49-3.63-.92-1.12-.43-2.19-1.05-3.2-1.84-1.01-.79-2.1-1.81-3.25-3.04l-6.84-7.16c-6.87,4.77-14.38,8.46-22.51,11.07-8.14,2.6-16.8,3.91-25.99,3.91-6.29,0-12.46-1.08-18.5-3.25-6.04-2.17-11.41-5.26-16.11-9.28-4.7-4.01-8.5-8.88-11.39-14.59-2.89-5.71-4.34-12.12-4.34-19.21,0-4.77.74-9.29,2.22-13.56,1.48-4.27,3.56-8.23,6.24-11.88,2.67-3.65,5.88-6.98,9.6-9.98,3.72-3,7.79-5.62,12.21-7.87-3.4-5.28-5.86-10.45-7.38-15.51-1.52-5.06-2.28-9.98-2.28-14.76,0-5.64,1.03-10.98,3.09-16,2.06-5.03,5.06-9.44,9.01-13.24,3.94-3.8,8.79-6.82,14.54-9.06,5.75-2.24,12.35-3.36,19.8-3.36ZM384.77,277.56c4.85,0,9.35-.63,13.51-1.9,4.16-1.26,8.05-3.05,11.66-5.37l-36.35-38.52c-3.98,3.25-6.8,6.8-8.46,10.63-1.66,3.83-2.5,7.85-2.5,12.04,0,3.47.52,6.62,1.57,9.44,1.05,2.82,2.55,5.25,4.5,7.27,1.95,2.03,4.29,3.6,7,4.72,2.71,1.12,5.73,1.68,9.06,1.68Z"/>
</svg>